<svg xmlns="http://www.w3.org/2000/svg" version="1.1" xmlns:xlink="http://www.w3.org/1999/xlink" xmlns:svgjs="http://svgjs.com/svgjs" width="1440" height="560" preserveAspectRatio="none" viewBox="0 0 1440 560"><g mask="url(&quot;#SvgjsMask1000&quot;)" fill="none"><rect width="1440" height="560" x="0" y="0" fill="#0e2a47"></rect><path d="M 0,209 C 57.6,175.2 172.8,48.4 288,40 C 403.2,31.6 460.8,167.6 576,167 C 691.2,166.4 748.8,26.2 864,37 C 979.2,47.8 1036.8,211.4 1152,221 C 1267.2,230.6 1382.4,112.2 1440,85L1440 560L0 560z" fill="#184a7e"></path><path d="M 0,388 C 96,399.8 288,450.8 480,447 C 672,443.2 768,367.8 960,369 C 1152,370.2 1344,436.2 1440,453L1440 560L0 560z" fill="#2264ab"></path></g><defs><mask id="SvgjsMask1000"><rect width="1440" height="560" fill="#ffffff"></rect></mask></defs></svg>